<svg width="54" height="55" viewBox="0 0 54 55" fill="none" xmlns="http://www.w3.org/2000/svg">
<path d="M52.7153 13.7308L52.6958 13.7484L52.6772 13.767L41.0281 25.4293C39.8998 26.5589 39.8998 28.5055 41.0281 29.6351L52.6772 41.2975C53.0256 41.6462 53.0256 42.3278 52.6772 42.6765L42.0946 53.2712C41.7469 53.6193 41.0681 53.6193 40.7204 53.2712L29.0713 41.6088C27.9424 40.4786 25.9961 40.4786 24.8671 41.6088L13.218 53.2712C12.8703 53.6193 12.1916 53.6193 11.8439 53.2712L1.26125 42.6765C0.912918 42.3277 0.912915 41.6462 1.26125 41.2975L12.9103 29.6351C14.0386 28.5055 14.0386 26.5589 12.9103 25.4293L1.26125 13.767L0.561029 14.4664L1.26125 13.767C0.912916 13.4182 0.912916 12.7367 1.26125 12.388L11.8439 1.7933C12.1916 1.4452 12.8703 1.4452 13.218 1.7933L13.9176 1.09455L13.218 1.7933L24.8671 13.4557C25.9961 14.5859 27.9424 14.5859 29.0713 13.4557L40.7204 1.7933C41.0681 1.4452 41.7469 1.4452 42.0946 1.7933L52.6772 12.388C53.1294 12.8407 53.0731 13.4085 52.7153 13.7308Z" stroke="url(#paint0_linear_1_25024)" stroke-width="2"/>
<defs>
<linearGradient id="paint0_linear_1_25024" x1="0" y1="27.5322" x2="54" y2="27.5322" gradientUnits="userSpaceOnUse">
<stop stop-color="#F7941D"/>
<stop offset="1" stop-color="#27AAE1"/>
</linearGradient>
</defs>
</svg>
