<svg width="116" height="31" viewBox="0 0 116 31" fill="none" xmlns="http://www.w3.org/2000/svg">
<path d="M7.60656 1.07422H108.393C112.318 1.07422 115.5 4.25593 115.5 8.18078V23.3939C115.5 27.3187 112.318 30.5004 108.393 30.5004H7.60656C3.68171 30.5004 0.5 27.3187 0.5 23.3939V8.18078C0.5 4.25593 3.68171 1.07422 7.60656 1.07422Z" stroke="url(#paint0_linear_1_16335)"/>
<path fill-rule="evenodd" clip-rule="evenodd" d="M64.568 8.17969C64.5309 11.1399 64.3289 12.8038 63.2188 13.914C62.1087 15.0243 60.4453 15.2264 57.4854 15.2632V15.7008C60.4453 15.7376 62.1087 15.9397 63.2188 17.0499C64.3289 18.1602 64.5309 19.824 64.568 22.7843H65.0054C65.0425 19.824 65.2445 18.1602 66.3546 17.0499C67.4647 15.9397 69.1281 15.7376 72.0885 15.7008V15.2632C69.1281 15.2264 67.4647 15.0243 66.3546 13.914C65.2445 12.8038 65.0425 11.1399 65.0054 8.17969H64.568Z" fill="url(#paint1_linear_1_16335)"/>
<path d="M14.9035 20.9599H16.8176V9.96387H14.0333C11.2332 9.96387 9.7619 11.4036 9.7619 13.5237C9.7619 15.2166 10.5687 16.2134 12.0084 17.2418L9.50879 20.9599H11.5812L14.3656 16.7988L13.4005 16.1501C12.2298 15.3591 11.6603 14.742 11.6603 13.413C11.6603 12.2422 12.483 11.4511 14.0491 11.4511H14.9035V20.9599ZM51.8117 21.1181C52.6817 21.1181 53.2988 20.9599 53.7576 20.6276V19.0929C53.2831 19.4252 52.7136 19.6309 51.9225 19.6309C50.5775 19.6309 50.0242 18.5867 50.0242 16.9412C50.0242 15.2166 50.7045 14.3306 51.9382 14.3306C52.666 14.3306 53.3777 14.5838 53.7576 14.8211V13.2231C53.362 13.0016 52.666 12.8434 51.7328 12.8434C49.3282 12.8434 48.0783 14.568 48.0783 16.9887C48.0783 19.6467 49.2963 21.1181 51.8117 21.1181ZM40.0416 20.422V18.8873C39.4562 19.2828 38.4754 19.6309 37.5578 19.6309C36.1815 19.6309 35.6594 18.9822 35.5803 17.6532H40.1207V16.6564C40.1207 13.8876 38.9025 12.8434 37.0199 12.8434C34.726 12.8434 33.6344 14.5996 33.6344 17.0045C33.6344 19.7733 34.9949 21.1181 37.3996 21.1181C38.6019 21.1181 39.4878 20.8017 40.0416 20.422ZM22.7977 13.0016V16.1501H20.2823V13.0016H18.3997V20.9599H20.2823V17.6374H22.7977V20.9599H24.6803V13.0016H22.7977ZM33.1756 19.4727H32.3372V13.0016H26.8476V13.682C26.8476 15.628 26.721 18.1436 26.0566 19.4727H25.4712V22.7794H27.2115V20.9599H31.4354V22.7794H33.1756V19.4727ZM46.0532 20.9599H48.1891L45.1672 16.6722L47.8249 13.0016H45.9266L43.2688 16.6722V13.0016H41.3863V20.9599H43.2688V17.0519L46.0532 20.9599ZM36.9883 14.3306C37.9217 14.3306 38.2064 15.1059 38.2064 16.1026V16.2609H35.5803C35.6278 14.9951 36.0865 14.3306 36.9883 14.3306ZM30.4546 19.4727H27.7968C28.3189 18.2702 28.4612 16.1026 28.4612 14.7262V14.4889H30.4546V19.4727Z" fill="url(#paint2_linear_1_16335)"/>
<path d="M77.1186 23.2521V20.958H83.0037V23.2521H84.7917V19.4707H83.7634V9.96191H77.0397L76.85 15.4204C76.7868 17.1924 76.5966 18.6322 76.0903 19.4707H75.3311V23.2521H77.1186ZM78.5268 15.6735L78.6689 11.4491H81.8489V19.4707H77.894C78.2263 18.7271 78.4635 17.4455 78.5268 15.6735Z" fill="url(#paint3_linear_1_16335)"/>
<path d="M88.0033 19.6302C87.0382 19.6302 86.0893 19.2822 85.583 18.9024V20.4372C85.9467 20.7378 86.8642 21.1175 88.2249 21.1175C90.2339 21.1175 91.2941 20.2156 91.2941 18.6177C91.2941 17.6842 90.7089 17.0513 89.6644 16.8298C90.6457 16.5134 91.0569 15.8172 91.0569 14.9312C91.0569 13.5864 89.9967 12.8428 88.2881 12.8428C87.0544 12.8428 86.2476 13.2225 85.7889 13.5073V15.042C86.2947 14.7097 86.9912 14.33 88.0195 14.33C88.7155 14.33 89.1586 14.6623 89.1586 15.2476C89.1586 15.8647 88.7787 16.1969 88.0033 16.1969H86.8172V17.6209H88.0033C88.9684 17.6209 89.3483 17.9057 89.3483 18.6018C89.3483 19.2347 88.8895 19.6302 88.0033 19.6302Z" fill="url(#paint4_linear_1_16335)"/>
<path d="M98.4178 20.4213V18.8866C97.8321 19.2822 96.8514 19.6302 95.9338 19.6302C94.5575 19.6302 94.0355 18.9816 93.9566 17.6525H98.4968V16.6558C98.4968 13.887 97.2788 12.8428 95.3961 12.8428C93.1023 12.8428 92.0107 14.5989 92.0107 17.0038C92.0107 19.7726 93.3709 21.1175 95.776 21.1175C96.9783 21.1175 97.864 20.801 98.4178 20.4213ZM95.3643 14.33C96.298 14.33 96.5828 15.1052 96.5828 16.102V16.2602H93.9566C94.0041 14.9945 94.4629 14.33 95.3643 14.33Z" fill="url(#paint5_linear_1_16335)"/>
<path d="M104.156 13.001V16.1495H101.64V13.001H99.7578V20.9592H101.64V17.6367H104.156V20.9592H106.038V13.001H104.156Z" fill="url(#paint6_linear_1_16335)"/>
<defs>
<linearGradient id="paint0_linear_1_16335" x1="0" y1="15.7873" x2="116" y2="15.7873" gradientUnits="userSpaceOnUse">
<stop stop-color="#F7941D"/>
<stop offset="1" stop-color="#27AAE1"/>
</linearGradient>
<linearGradient id="paint1_linear_1_16335" x1="57.4854" y1="15.482" x2="72.0885" y2="15.482" gradientUnits="userSpaceOnUse">
<stop stop-color="#F7941D"/>
<stop offset="1" stop-color="#27AAE1"/>
</linearGradient>
<linearGradient id="paint2_linear_1_16335" x1="9.50879" y1="16.3716" x2="53.7576" y2="16.3716" gradientUnits="userSpaceOnUse">
<stop stop-color="#F7941D"/>
<stop offset="1" stop-color="#27AAE1"/>
</linearGradient>
<linearGradient id="paint3_linear_1_16335" x1="75.3311" y1="16.607" x2="84.7917" y2="16.607" gradientUnits="userSpaceOnUse">
<stop stop-color="#F7941D"/>
<stop offset="1" stop-color="#27AAE1"/>
</linearGradient>
<linearGradient id="paint4_linear_1_16335" x1="85.583" y1="16.9801" x2="91.2941" y2="16.9801" gradientUnits="userSpaceOnUse">
<stop stop-color="#F7941D"/>
<stop offset="1" stop-color="#27AAE1"/>
</linearGradient>
<linearGradient id="paint5_linear_1_16335" x1="92.0107" y1="16.9801" x2="98.4968" y2="16.9801" gradientUnits="userSpaceOnUse">
<stop stop-color="#F7941D"/>
<stop offset="1" stop-color="#27AAE1"/>
</linearGradient>
<linearGradient id="paint6_linear_1_16335" x1="99.7578" y1="16.9801" x2="106.038" y2="16.9801" gradientUnits="userSpaceOnUse">
<stop stop-color="#F7941D"/>
<stop offset="1" stop-color="#27AAE1"/>
</linearGradient>
</defs>
</svg>
