<svg width="24" height="18" viewBox="0 0 24 18" fill="none" xmlns="http://www.w3.org/2000/svg">
<path fill-rule="evenodd" clip-rule="evenodd" d="M21.9698 3.77537V15.4711L2 15.4711L2 3.72141L6.5782 6.88177L4.56348 8.89647C4.17295 9.28699 4.17295 9.92015 4.56347 10.3107C4.95399 10.7012 5.58716 10.7012 5.97768 10.3107L8.25152 8.03687L11.7511 10.4527L15.7787 7.82087L18.2686 10.3107C18.6591 10.7012 19.2922 10.7012 19.6828 10.3107C20.0733 9.92015 20.0733 9.28699 19.6828 8.89647L17.4893 6.70307L21.9698 3.77537ZM20.2205 2.5293L3.7936 2.5293L11.7817 8.04353L20.2205 2.5293ZM21.9698 0.529297C23.0744 0.529297 23.9698 1.42473 23.9698 2.5293V15.4711C23.9698 16.5756 23.0744 17.4711 21.9698 17.4711L2 17.4711C0.895431 17.4711 0 16.5756 0 15.4711V2.52929C0 1.42473 0.895432 0.529297 2 0.529297H21.9698Z" fill="url(#paint0_linear_1_16311)"/>
<defs>
<linearGradient id="paint0_linear_1_16311" x1="0" y1="9.00018" x2="23.9698" y2="9.00018" gradientUnits="userSpaceOnUse">
<stop stop-color="#F7941D"/>
<stop offset="1" stop-color="#27AAE1"/>
</linearGradient>
</defs>
</svg>
