<svg width="18" height="18" viewBox="0 0 18 18" fill="none" xmlns="http://www.w3.org/2000/svg">
<path d="M17.7188 8.89355C17.7188 11.0498 17.0156 12.9482 15.6094 14.5889C14.2031 16.2061 12.457 17.1787 10.3711 17.5068V11.4248H12.4102L12.7969 8.89355H10.3711V7.24121C10.3711 6.35059 10.8398 5.90527 11.7773 5.90527H12.8672V3.76074C12.2109 3.64355 11.5664 3.58496 10.9336 3.58496C10.2539 3.58496 9.66797 3.71387 9.17578 3.97168C8.70703 4.22949 8.33203 4.61621 8.05078 5.13184C7.76953 5.64746 7.62891 6.25684 7.62891 6.95996V8.89355H5.41406V11.4248H7.62891V17.5068C5.54297 17.1787 3.79688 16.2061 2.39062 14.5889C0.984375 12.9482 0.28125 11.0498 0.28125 8.89355C0.28125 6.47949 1.125 4.42871 2.8125 2.74121C4.52344 1.03027 6.58594 0.174805 9 0.174805C11.4141 0.174805 13.4648 1.03027 15.1523 2.74121C16.8633 4.42871 17.7188 6.47949 17.7188 8.89355Z" fill="white"/>
</svg>
