<svg width="18" height="18" viewBox="0 0 18 18" fill="none" xmlns="http://www.w3.org/2000/svg">
<path d="M17.7188 8.80859C17.7188 13.168 14.5195 16.7891 10.3359 17.4219V11.3398H12.375L12.7617 8.80859H10.3359V7.19141C10.3359 6.48828 10.6875 5.82031 11.7773 5.82031H12.8672V3.67578C12.8672 3.67578 11.8828 3.5 10.8984 3.5C8.92969 3.5 7.62891 4.73047 7.62891 6.91016V8.80859H5.41406V11.3398H7.62891V17.4219C3.44531 16.7891 0.28125 13.168 0.28125 8.80859C0.28125 3.99219 4.18359 0.0898438 9 0.0898438C13.8164 0.0898438 17.7188 3.99219 17.7188 8.80859Z" fill="url(#paint0_linear_1_16334)"/>
<defs>
<linearGradient id="paint0_linear_1_16334" x1="0" y1="8.55859" x2="18" y2="8.55859" gradientUnits="userSpaceOnUse">
<stop stop-color="#F7941D"/>
<stop offset="1" stop-color="#27AAE1"/>
</linearGradient>
</defs>
</svg>
