<svg width="16" height="16" viewBox="0 0 16 16" fill="none" xmlns="http://www.w3.org/2000/svg">
<path d="M5.02734 5.0459C5.82422 4.24902 6.78516 3.85059 7.91016 3.85059C9.03516 3.85059 9.98438 4.24902 10.7578 5.0459C11.5547 5.81934 11.9531 6.76855 11.9531 7.89355C11.9531 9.01855 11.5547 9.97949 10.7578 10.7764C9.98438 11.5498 9.03516 11.9365 7.91016 11.9365C6.78516 11.9365 5.82422 11.5498 5.02734 10.7764C4.25391 9.97949 3.86719 9.01855 3.86719 7.89355C3.86719 6.76855 4.25391 5.81934 5.02734 5.0459ZM6.04688 9.75684C6.5625 10.2725 7.18359 10.5303 7.91016 10.5303C8.63672 10.5303 9.25781 10.2725 9.77344 9.75684C10.2891 9.24121 10.5469 8.62012 10.5469 7.89355C10.5469 7.16699 10.2891 6.5459 9.77344 6.03027C9.25781 5.51465 8.63672 5.25684 7.91016 5.25684C7.18359 5.25684 6.5625 5.51465 6.04688 6.03027C5.53125 6.5459 5.27344 7.16699 5.27344 7.89355C5.27344 8.62012 5.53125 9.24121 6.04688 9.75684ZM12.7617 3.04199C12.9492 3.20605 13.043 3.41699 13.043 3.6748C13.043 3.93262 12.9492 4.15527 12.7617 4.34277C12.5977 4.53027 12.3867 4.62402 12.1289 4.62402C11.8711 4.62402 11.6484 4.53027 11.4609 4.34277C11.2734 4.15527 11.1797 3.93262 11.1797 3.6748C11.1797 3.41699 11.2734 3.20605 11.4609 3.04199C11.6484 2.85449 11.8711 2.76074 12.1289 2.76074C12.3867 2.76074 12.5977 2.85449 12.7617 3.04199ZM15.75 4.65918C15.7734 5.29199 15.7852 6.37012 15.7852 7.89355C15.7852 9.41699 15.7734 10.4951 15.75 11.1279C15.6797 12.5576 15.2461 13.6709 14.4492 14.4678C13.6758 15.2412 12.5742 15.6514 11.1445 15.6982C10.5117 15.7451 9.43359 15.7686 7.91016 15.7686C6.38672 15.7686 5.30859 15.7451 4.67578 15.6982C3.24609 15.6279 2.14453 15.2061 1.37109 14.4326C1.06641 14.1514 0.820312 13.8232 0.632812 13.4482C0.445312 13.0732 0.304688 12.71 0.210938 12.3584C0.140625 12.0068 0.105469 11.5967 0.105469 11.1279C0.0585937 10.4951 0.0351562 9.41699 0.0351562 7.89355C0.0351562 6.37012 0.0585937 5.28027 0.105469 4.62402C0.175781 3.21777 0.597656 2.12793 1.37109 1.35449C2.14453 0.557617 3.24609 0.124023 4.67578 0.0537109C5.30859 0.0302734 6.38672 0.0185547 7.91016 0.0185547C9.43359 0.0185547 10.5117 0.0302734 11.1445 0.0537109C12.5742 0.124023 13.6758 0.557617 14.4492 1.35449C15.2461 2.12793 15.6797 3.22949 15.75 4.65918ZM14.0625 12.5342C14.1328 12.3467 14.1914 12.1123 14.2383 11.8311C14.2852 11.5264 14.3203 11.1748 14.3438 10.7764C14.3672 10.3545 14.3789 10.0146 14.3789 9.75684C14.3789 9.49902 14.3789 9.13574 14.3789 8.66699C14.3789 8.19824 14.3789 7.94043 14.3789 7.89355C14.3789 7.82324 14.3789 7.56543 14.3789 7.12012C14.3789 6.65137 14.3789 6.28809 14.3789 6.03027C14.3789 5.77246 14.3672 5.44434 14.3438 5.0459C14.3203 4.62402 14.2852 4.27246 14.2383 3.99121C14.1914 3.68652 14.1328 3.44043 14.0625 3.25293C13.7812 2.52637 13.2773 2.02246 12.5508 1.74121C12.3633 1.6709 12.1172 1.6123 11.8125 1.56543C11.5312 1.51855 11.1797 1.4834 10.7578 1.45996C10.3594 1.43652 10.0312 1.4248 9.77344 1.4248C9.53906 1.4248 9.17578 1.4248 8.68359 1.4248C8.21484 1.4248 7.95703 1.4248 7.91016 1.4248C7.86328 1.4248 7.60547 1.4248 7.13672 1.4248C6.66797 1.4248 6.30469 1.4248 6.04688 1.4248C5.78906 1.4248 5.44922 1.43652 5.02734 1.45996C4.62891 1.4834 4.27734 1.51855 3.97266 1.56543C3.69141 1.6123 3.45703 1.6709 3.26953 1.74121C2.54297 2.02246 2.03906 2.52637 1.75781 3.25293C1.6875 3.44043 1.62891 3.68652 1.58203 3.99121C1.53516 4.27246 1.5 4.62402 1.47656 5.0459C1.45312 5.44434 1.44141 5.77246 1.44141 6.03027C1.44141 6.26465 1.44141 6.62793 1.44141 7.12012C1.44141 7.58887 1.44141 7.84668 1.44141 7.89355C1.44141 7.9873 1.44141 8.20996 1.44141 8.56152C1.44141 8.88965 1.44141 9.1709 1.44141 9.40527C1.44141 9.61621 1.44141 9.89746 1.44141 10.249C1.46484 10.6006 1.48828 10.9053 1.51172 11.1631C1.53516 11.3975 1.57031 11.6436 1.61719 11.9014C1.66406 12.1592 1.71094 12.3701 1.75781 12.5342C2.0625 13.2607 2.56641 13.7646 3.26953 14.0459C3.45703 14.1162 3.69141 14.1748 3.97266 14.2217C4.27734 14.2686 4.62891 14.3037 5.02734 14.3271C5.44922 14.3506 5.77734 14.3623 6.01172 14.3623C6.26953 14.3623 6.63281 14.3623 7.10156 14.3623C7.59375 14.3623 7.86328 14.3623 7.91016 14.3623C7.98047 14.3623 8.23828 14.3623 8.68359 14.3623C9.15234 14.3623 9.51562 14.3623 9.77344 14.3623C10.0312 14.3623 10.3594 14.3506 10.7578 14.3271C11.1797 14.3037 11.5312 14.2686 11.8125 14.2217C12.1172 14.1748 12.3633 14.1162 12.5508 14.0459C13.2773 13.7412 13.7812 13.2373 14.0625 12.5342Z" fill="white"/>
</svg>
