<svg width="17" height="17" viewBox="0 0 17 17" fill="none" xmlns="http://www.w3.org/2000/svg">
<path d="M8.875 4.76562C11.0898 4.76562 12.918 6.59375 12.918 8.80859C12.918 11.0586 11.0898 12.8516 8.875 12.8516C6.625 12.8516 4.83203 11.0586 4.83203 8.80859C4.83203 6.59375 6.625 4.76562 8.875 4.76562ZM8.875 11.4453C10.3164 11.4453 11.4766 10.2852 11.4766 8.80859C11.4766 7.36719 10.3164 6.20703 8.875 6.20703C7.39844 6.20703 6.23828 7.36719 6.23828 8.80859C6.23828 10.2852 7.43359 11.4453 8.875 11.4453ZM14.0078 4.625C14.0078 5.15234 13.5859 5.57422 13.0586 5.57422C12.5312 5.57422 12.1094 5.15234 12.1094 4.625C12.1094 4.09766 12.5312 3.67578 13.0586 3.67578C13.5859 3.67578 14.0078 4.09766 14.0078 4.625ZM16.6797 5.57422C16.75 6.875 16.75 10.7773 16.6797 12.0781C16.6094 13.3438 16.3281 14.4336 15.4141 15.3828C14.5 16.2969 13.375 16.5781 12.1094 16.6484C10.8086 16.7188 6.90625 16.7188 5.60547 16.6484C4.33984 16.5781 3.25 16.2969 2.30078 15.3828C1.38672 14.4336 1.10547 13.3438 1.03516 12.0781C0.964844 10.7773 0.964844 6.875 1.03516 5.57422C1.10547 4.30859 1.38672 3.18359 2.30078 2.26953C3.25 1.35547 4.33984 1.07422 5.60547 1.00391C6.90625 0.933594 10.8086 0.933594 12.1094 1.00391C13.375 1.07422 14.5 1.35547 15.4141 2.26953C16.3281 3.18359 16.6094 4.30859 16.6797 5.57422ZM14.9922 13.4492C15.4141 12.4297 15.3086 9.96875 15.3086 8.80859C15.3086 7.68359 15.4141 5.22266 14.9922 4.16797C14.7109 3.5 14.1836 2.9375 13.5156 2.69141C12.4609 2.26953 10 2.375 8.875 2.375C7.71484 2.375 5.25391 2.26953 4.23438 2.69141C3.53125 2.97266 3.00391 3.5 2.72266 4.16797C2.30078 5.22266 2.40625 7.68359 2.40625 8.80859C2.40625 9.96875 2.30078 12.4297 2.72266 13.4492C3.00391 14.1523 3.53125 14.6797 4.23438 14.9609C5.25391 15.3828 7.71484 15.2773 8.875 15.2773C10 15.2773 12.4609 15.3828 13.5156 14.9609C14.1836 14.6797 14.7461 14.1523 14.9922 13.4492Z" fill="url(#paint0_linear_1_16330)"/>
<defs>
<linearGradient id="paint0_linear_1_16330" x1="1" y1="8.55859" x2="17" y2="8.55859" gradientUnits="userSpaceOnUse">
<stop stop-color="#F7941D"/>
<stop offset="1" stop-color="#27AAE1"/>
</linearGradient>
</defs>
</svg>
