<svg width="22" height="27" viewBox="0 0 22 27" fill="none" xmlns="http://www.w3.org/2000/svg">
<path fill-rule="evenodd" clip-rule="evenodd" d="M19.5589 10.7795C19.5589 13.9975 17.3378 17.452 14.695 20.3345C13.4209 21.7242 12.1402 22.8827 11.1757 23.6947C11.0349 23.8132 10.9013 23.924 10.7757 24.0269C10.6511 23.9255 10.5187 23.8162 10.3793 23.6995C9.4154 22.8923 8.13554 21.7396 6.86225 20.3542C4.22317 17.4829 2 14.0275 2 10.7795C2 5.9307 5.9307 2 10.7795 2C15.6282 2 19.5589 5.9307 19.5589 10.7795ZM21.5589 10.7795C21.5589 18.8246 10.7795 26.5589 10.7795 26.5589C10.7795 26.5589 0 18.8819 0 10.7795C0 4.82613 4.82613 0 10.7795 0C16.7328 0 21.5589 4.82613 21.5589 10.7795ZM13.3385 10.4798C13.3385 11.8936 12.1924 13.0397 10.7786 13.0397C9.36485 13.0397 8.21875 11.8936 8.21875 10.4798C8.21875 9.06602 9.36485 7.91992 10.7786 7.91992C12.1924 7.91992 13.3385 9.06602 13.3385 10.4798ZM15.3385 10.4798C15.3385 12.9982 13.297 15.0397 10.7786 15.0397C8.26028 15.0397 6.21875 12.9982 6.21875 10.4798C6.21875 7.96146 8.26028 5.91992 10.7786 5.91992C13.297 5.91992 15.3385 7.96146 15.3385 10.4798Z" fill="url(#paint0_linear_1_16327)"/>
<defs>
<linearGradient id="paint0_linear_1_16327" x1="0" y1="13.2794" x2="21.5589" y2="13.2794" gradientUnits="userSpaceOnUse">
<stop stop-color="#F7941D"/>
<stop offset="1" stop-color="#27AAE1"/>
</linearGradient>
</defs>
</svg>
