<svg width="100" height="71" viewBox="0 0 100 71" fill="none" xmlns="http://www.w3.org/2000/svg">
<path d="M16.4671 70.6461C7.38524 70.6461 0 63.2609 0 54.179C0 45.0972 7.38524 37.7119 16.4671 37.7119C25.549 37.7119 32.9342 45.0972 32.9342 54.179C32.9342 63.3108 25.549 70.6461 16.4671 70.6461Z" fill="#00093C"/>
<path d="M16.4671 70.6461C7.38524 70.6461 0 63.2609 0 54.179C0 45.0972 7.38524 37.7119 16.4671 37.7119C25.549 37.7119 32.9342 45.0972 32.9342 54.179C32.9342 63.3108 25.549 70.6461 16.4671 70.6461Z" fill="#00093C"/>
<path d="M55.3903 1.83384L37.526 31.0255C37.027 31.8738 37.5759 32.9217 38.524 32.9217H56.3883H74.2526C75.2007 32.9217 75.7496 31.8239 75.2506 31.0255L57.3863 1.83384C56.8873 1.08533 55.8394 1.08533 55.3903 1.83384Z" fill="#00093C"/>
<path d="M32.5839 6.77396L26.1468 0.336827C25.6977 -0.112276 24.8993 -0.112276 24.4502 0.336827L17.3644 7.42267C16.9153 7.87177 16.1168 7.87177 15.6677 7.42267L8.5819 0.336827C8.13279 -0.112276 7.33439 -0.112276 6.88529 0.336827L0.448155 6.77396C-0.000947557 7.22307 -0.000947557 8.02147 0.448155 8.47058L7.53399 15.5564C7.98309 16.0055 7.98309 16.8039 7.53399 17.253L0.448155 24.3389C-0.000947557 24.788 -0.000947557 25.5864 0.448155 26.0355L6.88529 32.4726C7.33439 32.9217 8.13279 32.9217 8.5819 32.4726L15.6677 25.3868C16.1168 24.9377 16.9153 24.9377 17.3644 25.3868L24.4502 32.4726C24.8993 32.9217 25.6977 32.9217 26.1468 32.4726L32.5839 26.0355C33.0331 25.5864 33.0331 24.788 32.5839 24.3389L25.4981 17.253C25.049 16.8039 25.049 16.0055 25.4981 15.5564L32.5839 8.47058C33.083 8.02147 33.083 7.27297 32.5839 6.77396Z" fill="#00093C"/>
<path d="M40.6675 49.0887V51.1845H44.3102V52.6316H40.6675V55.476H38.8711V47.6416H44.7593V49.0887H40.6675Z" fill="black"/>
<path d="M47.2059 54.6775C46.6071 54.0787 46.2578 53.1805 46.2578 52.0328V47.6416H48.0542V51.933C48.0542 53.3302 48.653 54.0288 49.8007 54.0288C50.3496 54.0288 50.7987 53.8791 51.0981 53.5298C51.3975 53.1805 51.5472 52.6815 51.5472 51.933V47.6416H53.3437V52.0328C53.3437 53.1805 53.0443 54.0787 52.3956 54.6775C51.7968 55.2764 50.8985 55.6257 49.8007 55.6257C48.7029 55.6257 47.8047 55.2764 47.2059 54.6775Z" fill="black"/>
<path d="M56.9364 49.1386H54.4414V47.6416H61.2279V49.1386H58.7328V55.476H56.9364V49.1386Z" fill="black"/>
<path d="M63.2723 54.6775C62.6735 54.0787 62.3242 53.1805 62.3242 52.0328V47.6416H64.1206V51.933C64.1206 53.3302 64.7194 54.0288 65.8671 54.0288C66.416 54.0288 66.8651 53.8791 67.1645 53.5298C67.4639 53.1805 67.6137 52.6815 67.6137 51.933V47.6416H69.4101V52.0328C69.4101 53.1805 69.1107 54.0787 68.462 54.6775C67.8631 55.2764 66.965 55.6257 65.8671 55.6257C64.7693 55.6257 63.921 55.2764 63.2723 54.6775Z" fill="black"/>
<path d="M76.4978 55.4768L75.0008 53.2812H74.901H73.3042V55.4768H71.5078V47.6924H74.901C75.5996 47.6924 76.1984 47.7922 76.6974 48.0417C77.1964 48.2912 77.5956 48.5906 77.895 49.0397C78.1445 49.4389 78.2943 49.9878 78.2943 50.5367C78.2943 51.1355 78.1445 51.6345 77.895 52.0337C77.5956 52.4329 77.1964 52.7822 76.6974 52.9818L78.444 55.4768H76.4978ZM76.0487 49.4888C75.7493 49.2393 75.3501 49.1395 74.8012 49.1395H73.3042V51.884H74.8012C75.3501 51.884 75.7493 51.7842 76.0487 51.5347C76.3481 51.2852 76.4479 50.9858 76.4479 50.5367C76.4978 50.0377 76.3481 49.7383 76.0487 49.4888Z" fill="black"/>
<path d="M86.1278 54.0288V55.476H80.0898V47.6416H85.9781V49.0887H81.8862V50.7853H85.4791V52.2324H81.8862V54.0288H86.1278Z" fill="black"/>
<path d="M44.0119 68.2509H40.3691L39.6705 69.9475H37.8242L41.3172 62.1631H43.1137L46.6067 69.9475H44.7105L44.0119 68.2509ZM43.4629 66.9036L42.2154 63.9096L40.9679 66.9036H43.4629Z" fill="black"/>
<path d="M49.2022 69.5487C48.5534 69.1994 48.0544 68.7004 47.7051 68.1016C47.3558 67.5028 47.1562 66.8042 47.1562 66.0058C47.1562 65.2573 47.3558 64.5587 47.7051 63.91C48.0544 63.3112 48.6033 62.8122 49.2022 62.4629C49.8509 62.1136 50.5495 61.9639 51.3479 61.9639C52.0465 61.9639 52.6453 62.0637 53.1942 62.3132C53.7431 62.5627 54.1922 62.912 54.5914 63.3611L53.4437 64.409C52.8948 63.8102 52.2461 63.5108 51.4976 63.5108C50.9986 63.5108 50.5994 63.6106 50.2002 63.8102C49.801 64.0098 49.5016 64.3092 49.302 64.7084C49.1024 65.1076 49.0026 65.5068 49.0026 66.0058C49.0026 66.5048 49.1024 66.904 49.302 67.3032C49.5016 67.7024 49.801 68.0018 50.2002 68.2014C50.5994 68.401 50.9986 68.5008 51.4976 68.5008C52.296 68.5008 52.9447 68.2014 53.4437 67.5527L54.5914 68.6006C54.2421 69.0497 53.7431 69.399 53.1942 69.6485C52.6453 69.898 52.0465 69.9978 51.3479 69.9978C50.5994 70.0477 49.8509 69.898 49.2022 69.5487Z" fill="black"/>
<path d="M61.1271 68.2509H57.4844L56.7858 69.9475H54.9395L58.4325 62.1631H60.2289L63.7219 69.9475H61.8257L61.1271 68.2509ZM60.5782 66.9036L59.3307 63.9096L58.0832 66.9036H60.5782Z" fill="black"/>
<path d="M64.8711 62.1133H68.414C69.2623 62.1133 70.0108 62.263 70.6595 62.6123C71.3082 62.9117 71.8072 63.4107 72.1565 63.9596C72.5058 64.5584 72.7054 65.2071 72.7054 66.0055C72.7054 66.8039 72.5058 67.4526 72.1565 68.0514C71.8072 68.6502 71.3082 69.0993 70.6595 69.3987C70.0108 69.6981 69.2623 69.8977 68.414 69.8977H64.8711V62.1133ZM68.3142 68.4506C69.1126 68.4506 69.7114 68.251 70.1605 67.8019C70.6096 67.3528 70.8591 66.754 70.8591 66.0554C70.8591 65.3069 70.6096 64.7081 70.1605 64.3089C69.7114 63.8598 69.0627 63.6602 68.3142 63.6602H66.6675V68.5005H68.3142V68.4506Z" fill="black"/>
<path d="M80.4383 68.5005V69.9476H74.4004V62.1133H80.2886V63.5604H76.1968V65.257H79.8395V66.6542H76.1968V68.5005H80.4383Z" fill="black"/>
<path d="M89.3222 69.9476V65.257L87.0268 69.0993H86.2284L83.9329 65.3568V69.9476H82.2363V62.1133H83.7333L86.6275 66.9536L89.5218 62.1133H91.0188V69.9476H89.3222Z" fill="black"/>
<path d="M96.9556 67.1532V69.9476H95.1592V67.1532L92.1152 62.1133H94.0614L96.1572 65.6063L98.2031 62.1133H99.9995L96.9556 67.1532Z" fill="black"/>
</svg>
