<svg width="83" height="59" viewBox="0 0 83 59" fill="none" xmlns="http://www.w3.org/2000/svg">
<path d="M13.6694 58.667C6.13054 58.667 0 52.5365 0 44.9976C0 37.4587 6.13054 31.3281 13.6694 31.3281C21.2083 31.3281 27.3389 37.4587 27.3389 44.9976C27.3389 52.5779 21.2083 58.667 13.6694 58.667Z" fill="white"/>
<path d="M13.6694 58.667C6.13054 58.667 0 52.5365 0 44.9976C0 37.4587 6.13054 31.3281 13.6694 31.3281C21.2083 31.3281 27.3389 37.4587 27.3389 44.9976C27.3389 52.5779 21.2083 58.667 13.6694 58.667Z" fill="white"/>
<path d="M45.9796 1.54511L31.1503 25.7773C30.7361 26.4815 31.1917 27.3513 31.9787 27.3513H46.808H61.6373C62.4243 27.3513 62.88 26.44 62.4657 25.7773L47.6365 1.54511C47.2222 0.923767 46.3524 0.923767 45.9796 1.54511Z" fill="white"/>
<path d="M27.0495 5.64654L21.706 0.30304C21.3332 -0.0697632 20.6704 -0.0697632 20.2976 0.30304L14.4156 6.18504C14.0428 6.55784 13.38 6.55784 13.0072 6.18504L7.12522 0.30304C6.75242 -0.0697632 6.08966 -0.0697632 5.71686 0.30304L0.373352 5.64654C0.000549294 6.01935 0.000549294 6.68211 0.373352 7.05491L6.25534 12.9369C6.62815 13.3097 6.62815 13.9725 6.25534 14.3453L0.373352 20.2273C0.000549294 20.6001 0.000549294 21.2628 0.373352 21.6356L5.71686 26.9792C6.08966 27.352 6.75242 27.352 7.12522 26.9792L13.0072 21.0972C13.38 20.7244 14.0428 20.7244 14.4156 21.0972L20.2976 26.9792C20.6704 27.352 21.3332 27.352 21.706 26.9792L27.0495 21.6356C27.4223 21.2628 27.4223 20.6001 27.0495 20.2273L21.1675 14.3453C20.7947 13.9725 20.7947 13.3097 21.1675 12.9369L27.0495 7.05491C27.4637 6.68211 27.4637 6.06077 27.0495 5.64654Z" fill="white"/>
<path d="M33.7588 40.7726V42.5123H36.7826V43.7135H33.7588V46.0746H32.2676V39.5713H37.1554V40.7726H33.7588Z" fill="white"/>
<path d="M39.1855 45.4119C38.6884 44.9148 38.3984 44.1692 38.3984 43.2165V39.5713H39.8897V43.1336C39.8897 44.2935 40.3867 44.8734 41.3394 44.8734C41.7951 44.8734 42.1679 44.7491 42.4164 44.4592C42.665 44.1692 42.7892 43.755 42.7892 43.1336V39.5713H44.2804V43.2165C44.2804 44.1692 44.0319 44.9148 43.4934 45.4119C42.9963 45.9089 42.2507 46.1989 41.3394 46.1989C40.4281 46.1989 39.6825 45.9089 39.1855 45.4119Z" fill="white"/>
<path d="M47.2625 40.814H45.1914V39.5713H50.8249V40.814H48.7537V46.0746H47.2625V40.814Z" fill="white"/>
<path d="M52.5234 45.4119C52.0263 44.9148 51.7363 44.1692 51.7363 43.2165V39.5713H53.2275V43.1336C53.2275 44.2935 53.7246 44.8734 54.6773 44.8734C55.133 44.8734 55.5058 44.7491 55.7543 44.4592C56.0028 44.1692 56.1271 43.755 56.1271 43.1336V39.5713H57.6183V43.2165C57.6183 44.1692 57.3698 44.9148 56.8313 45.4119C56.3342 45.9089 55.5886 46.1989 54.6773 46.1989C53.766 46.1989 53.0618 45.9089 52.5234 45.4119Z" fill="white"/>
<path d="M63.5016 46.0752L62.259 44.2526H62.1761H60.8506V46.0752H59.3594V39.6133H62.1761C62.756 39.6133 63.2531 39.6961 63.6673 39.9032C64.0815 40.1104 64.4129 40.3589 64.6615 40.7317C64.8686 41.0631 64.9928 41.5187 64.9928 41.9744C64.9928 42.4714 64.8686 42.8857 64.6615 43.217C64.4129 43.5484 64.0815 43.8384 63.6673 44.0041L65.1171 46.0752H63.5016ZM63.1288 41.1045C62.8803 40.8974 62.5489 40.8145 62.0933 40.8145H60.8506V43.0928H62.0933C62.5489 43.0928 62.8803 43.0099 63.1288 42.8028C63.3774 42.5957 63.4602 42.3472 63.4602 41.9744C63.5016 41.5601 63.3774 41.3116 63.1288 41.1045Z" fill="white"/>
<path d="M71.4945 44.8734V46.0746H66.4824V39.5713H71.3703V40.7726H67.9736V42.1809H70.956V43.3822H67.9736V44.8734H71.4945Z" fill="white"/>
<path d="M36.5348 56.6795H33.511L32.9311 58.0879H31.3984L34.298 51.626H35.7892L38.6888 58.0879H37.1147L36.5348 56.6795ZM36.0792 55.5611L35.0436 53.0758L34.0081 55.5611H36.0792Z" fill="white"/>
<path d="M40.8428 57.7562C40.3044 57.4662 39.8901 57.052 39.6002 56.5549C39.3102 56.0579 39.1445 55.4779 39.1445 54.8152C39.1445 54.1939 39.3102 53.6139 39.6002 53.0754C39.8901 52.5784 40.3458 52.1641 40.8428 51.8742C41.3813 51.5842 41.9613 51.46 42.624 51.46C43.2039 51.46 43.701 51.5428 44.1566 51.7499C44.6123 51.957 44.9851 52.247 45.3165 52.6198L44.3638 53.4897C43.9081 52.9926 43.3696 52.7441 42.7483 52.7441C42.3341 52.7441 42.0027 52.8269 41.6713 52.9926C41.3399 53.1583 41.0914 53.4068 40.9257 53.7382C40.76 54.0696 40.6772 54.401 40.6772 54.8152C40.6772 55.2294 40.76 55.5608 40.9257 55.8922C41.0914 56.2236 41.3399 56.4721 41.6713 56.6378C42.0027 56.8035 42.3341 56.8863 42.7483 56.8863C43.411 56.8863 43.9495 56.6378 44.3638 56.0993L45.3165 56.9692C45.0265 57.342 44.6123 57.6319 44.1566 57.839C43.701 58.0461 43.2039 58.129 42.624 58.129C42.0027 58.1704 41.3813 58.0461 40.8428 57.7562Z" fill="white"/>
<path d="M50.7419 56.6795H47.718L47.1381 58.0879H45.6055L48.505 51.626H49.9963L52.8958 58.0879H51.3218L50.7419 56.6795ZM50.2862 55.5611L49.2507 53.0758L48.2151 55.5611H50.2862Z" fill="white"/>
<path d="M53.8496 51.584H56.7906C57.4948 51.584 58.1161 51.7083 58.6546 51.9982C59.1931 52.2467 59.6073 52.661 59.8973 53.1166C60.1872 53.6137 60.3529 54.1522 60.3529 54.8149C60.3529 55.4777 60.1872 56.0162 59.8973 56.5133C59.6073 57.0103 59.1931 57.3831 58.6546 57.6317C58.1161 57.8802 57.4948 58.0459 56.7906 58.0459H53.8496V51.584ZM56.7078 56.8447C57.3705 56.8447 57.8676 56.679 58.2404 56.3062C58.6132 55.9334 58.8203 55.4363 58.8203 54.8564C58.8203 54.235 58.6132 53.738 58.2404 53.4066C57.8676 53.0338 57.3291 52.8681 56.7078 52.8681H55.3408V56.8861H56.7078V56.8447Z" fill="white"/>
<path d="M66.7738 56.8861V58.0873H61.7617V51.584H66.6496V52.7852H63.2529V54.1936H66.2768V55.3534H63.2529V56.8861H66.7738Z" fill="white"/>
<path d="M74.1457 58.0873V54.1936L72.2402 57.3831H71.5775L69.672 54.2764V58.0873H68.2637V51.584H69.5063L71.9088 55.602L74.3114 51.584H75.554V58.0873H74.1457Z" fill="white"/>
<path d="M80.4828 55.7677V58.0873H78.9916V55.7677L76.4648 51.584H78.0803L79.8201 54.4836L81.5184 51.584H83.0096L80.4828 55.7677Z" fill="white"/>
</svg>
