<svg width="420" height="192" viewBox="0 0 420 192" fill="none" xmlns="http://www.w3.org/2000/svg">
<path fill-rule="evenodd" clip-rule="evenodd" d="M49.8913 1C38.8456 1 29.8913 9.95431 29.8913 21V101H3.21469C1.53768 101 0.605335 102.94 1.65295 104.249L29.8913 139.547V171C29.8913 182.046 38.8456 191 49.8913 191H398.997C410.042 191 418.997 182.046 418.997 171V21C418.997 9.95431 410.042 1 398.997 1H49.8913Z" fill="white"/>
<path d="M29.8913 101V102H30.8913V101H29.8913ZM1.65295 104.249L0.872085 104.874H0.872085L1.65295 104.249ZM29.8913 139.547H30.8913V139.197L30.6722 138.923L29.8913 139.547ZM30.8913 21C30.8913 10.5066 39.3979 2 49.8913 2V0C38.2934 0 28.8913 9.40202 28.8913 21H30.8913ZM30.8913 101V21H28.8913V101H30.8913ZM29.8913 100H3.21469V102H29.8913V100ZM3.21469 100C0.699168 100 -0.699343 102.91 0.872085 104.874L2.43382 103.625C1.91001 102.97 2.37619 102 3.21469 102V100ZM0.872085 104.874L29.1105 140.172L30.6722 138.923L2.43382 103.625L0.872085 104.874ZM30.8913 171V139.547H28.8913V171H30.8913ZM49.8913 190C39.3979 190 30.8913 181.493 30.8913 171H28.8913C28.8913 182.598 38.2933 192 49.8913 192V190ZM398.997 190H49.8913V192H398.997V190ZM417.997 171C417.997 181.493 409.49 190 398.997 190V192C410.595 192 419.997 182.598 419.997 171H417.997ZM417.997 21V171H419.997V21H417.997ZM398.997 2C409.49 2 417.997 10.5066 417.997 21H419.997C419.997 9.40202 410.595 0 398.997 0V2ZM49.8913 2H398.997V0H49.8913V2Z" fill="url(#paint0_linear_1_2683)"/>
<defs>
<linearGradient id="paint0_linear_1_2683" x1="1.21094" y1="96" x2="418.996" y2="96" gradientUnits="userSpaceOnUse">
<stop stop-color="#F7941D"/>
<stop offset="1" stop-color="#27AAE1"/>
</linearGradient>
</defs>
</svg>
