<svg width="17" height="24" viewBox="0 0 17 24" fill="none" xmlns="http://www.w3.org/2000/svg">
<path fill-rule="evenodd" clip-rule="evenodd" d="M2 2.01465H14.0147V21.9844L2 21.9844L2 2.01465ZM0 2.01465C0 0.910081 0.895431 0.0146484 2 0.0146484H14.0147C15.1193 0.0146484 16.0147 0.910079 16.0147 2.01465V21.9844C16.0147 23.089 15.1193 23.9844 14.0147 23.9844H2C0.89543 23.9844 0 23.089 0 21.9844V2.01465ZM5.99023 17.9521C5.43795 17.9521 4.99023 18.3999 4.99023 18.9521C4.99023 19.5044 5.43795 19.9521 5.99023 19.9521H10.026C10.5782 19.9521 11.026 19.5044 11.026 18.9521C11.026 18.3999 10.5782 17.9521 10.026 17.9521H5.99023Z" fill="url(#paint0_linear_1_16320)"/>
<defs>
<linearGradient id="paint0_linear_1_16320" x1="0" y1="11.9995" x2="16.0147" y2="11.9995" gradientUnits="userSpaceOnUse">
<stop stop-color="#F7941D"/>
<stop offset="1" stop-color="#27AAE1"/>
</linearGradient>
</defs>
</svg>
