<svg width="16" height="14" viewBox="0 0 16 14" fill="none" xmlns="http://www.w3.org/2000/svg">
<path d="M15.75 1.37402L13.3594 12.5537C13.1719 13.3506 12.7383 13.5615 12.0586 13.1865L8.4375 10.5146L6.67969 12.2021C6.44531 12.4365 6.19922 12.5537 5.94141 12.5537L6.22266 8.8623L12.9375 2.81543C13.1016 2.65137 13.1016 2.55762 12.9375 2.53418C12.7969 2.4873 12.6445 2.52246 12.4805 2.63965L4.18359 7.87793L0.597656 6.75293C0.199219 6.63574 0.0117187 6.45996 0.0351562 6.22559C0.0585938 5.99121 0.304688 5.79199 0.773438 5.62793L14.7305 0.213867C15.082 0.0966797 15.3633 0.143555 15.5742 0.354492C15.7852 0.541992 15.8438 0.881836 15.75 1.37402Z" fill="white"/>
</svg>
