<svg width="98" height="99" viewBox="0 0 98 99" fill="none" xmlns="http://www.w3.org/2000/svg">
<path d="M19.581 83.8602C9.33405 83.8602 1 75.5261 1 65.2792C1 55.0323 9.33405 46.6982 19.581 46.6982C29.8279 46.6982 38.1619 55.0323 38.1619 65.2792C38.1619 75.5835 29.8299 83.8602 19.581 83.8602Z" stroke="#00093C" stroke-width="2"/>
<path d="M66.7018 2.04401L66.7019 2.04403L66.7064 2.03652C66.7848 1.90579 66.8967 1.85449 67.0134 1.85449C67.1306 1.85449 67.2729 1.90885 67.3819 2.06438L88.6118 36.7557L88.6117 36.7557L88.6167 36.7637C88.7081 36.91 88.7124 37.0952 88.6282 37.2581C88.5473 37.4147 88.4208 37.4885 88.278 37.4885H67.0356H45.7932C45.6297 37.4885 45.5107 37.4091 45.4398 37.2743C45.3672 37.1361 45.3521 36.9429 45.465 36.7467L66.7018 2.04401Z" stroke="#00093C" stroke-width="2"/>
<path d="M37.9968 10.1835L37.9773 10.2011L37.9587 10.2197L29.5329 18.6455C28.6084 19.57 28.6084 21.1526 29.5329 22.0771L37.9587 30.5029C38.1022 30.6464 38.1022 30.9626 37.9587 31.1061L30.3043 38.7605C30.1608 38.904 29.8446 38.904 29.7011 38.7605L21.2754 30.3347C20.3508 29.4102 18.7683 29.4102 17.8437 30.3347L9.41795 38.7605C9.27445 38.904 8.95824 38.904 8.81474 38.7605L1.16036 31.1061C1.01686 30.9626 1.01686 30.6464 1.16036 30.5029L9.5861 22.0771C10.5107 21.1526 10.5107 19.57 9.5861 18.6455L1.16036 10.2197C1.01686 10.0762 1.01686 9.76 1.16036 9.61649L8.81474 1.96212C8.95824 1.81862 9.27445 1.81862 9.41795 1.96212L17.8437 10.3879C18.7683 11.3124 20.3508 11.3124 21.2754 10.3879L29.7011 1.96212C29.8446 1.81862 30.1608 1.81862 30.3043 1.96212L37.9587 9.61649C38.0758 9.73358 38.1108 9.85317 38.1108 9.94036C38.1108 10.0244 38.0798 10.1089 37.9968 10.1835Z" stroke="#00093C" stroke-width="2"/>
<path d="M70.8832 70.6987L67.1363 63.8979M67.1363 63.8979C67.1363 63.8979 64.8526 59.753 63.3894 57.0971C62.921 56.247 61.8115 56.1372 60.7622 56.3283C60.0202 56.4634 59.5823 56.7046 59.0717 57.2596C58.3496 58.0445 57.85 59.0408 58.318 59.8912C58.5476 60.3083 66.2802 74.3429 67.6853 76.8932C68.9786 79.2407 61.5314 75.0924 61.1173 74.9711C59.8042 74.5864 57.2681 75.9837 58.6732 78.534C58.9599 79.0544 73.6996 89.4238 77.7325 92.255C78.3569 92.6934 79.1665 92.7305 79.8347 92.3624L92.6678 85.292C93.4347 84.8695 93.8372 83.9986 93.6477 83.1438C93.1361 80.8364 92.0523 76.2363 90.8728 72.9831C89.3225 68.7077 86.566 63.1664 86.0972 62.3165C84.7771 59.9232 79.1524 61.7102 79.1524 61.7102M67.1363 63.8979C67.1363 63.8979 69.009 62.092 70.5172 62.0352C71.5836 61.9951 73.1444 62.8041 73.1444 62.8041M73.1444 62.8041L75.9545 67.9047M73.1444 62.8041C73.1444 62.8041 73.4301 59.3221 78.2161 60.0097C78.3915 60.0349 79.1524 61.7102 79.1524 61.7102M81.9626 66.8108L79.1524 61.7102" stroke="#00093C" stroke-width="2"/>
</svg>
