<svg width="20" height="12" viewBox="0 0 20 12" fill="none" xmlns="http://www.w3.org/2000/svg">
<path d="M19.1602 0.957031C18.8789 2.15234 16.3477 5.73828 16.3477 5.73828C16.1367 6.08984 16.0312 6.26562 16.3477 6.65234C16.4883 6.82812 19.125 9.35938 19.5117 10.5547C19.6875 11.1523 19.4062 11.4336 18.8086 11.4336H16.7344C15.9609 11.4336 15.7148 10.8359 14.3086 9.42969C13.0781 8.23438 12.5508 8.05859 12.2344 8.05859C11.6016 8.05859 11.707 8.30469 11.707 10.6602C11.707 11.1523 11.5312 11.4336 10.2305 11.4336C8.05078 11.4336 5.625 10.1328 3.90234 7.67188C1.33594 4.05078 0.632812 1.34375 0.632812 0.78125C0.632812 0.464844 0.773438 0.183594 1.33594 0.183594H3.41016C3.9375 0.183594 4.14844 0.429688 4.35938 0.992188C5.37891 3.94531 7.06641 6.54688 7.76953 6.54688C8.05078 6.54688 8.15625 6.40625 8.15625 5.73828V2.67969C8.08594 1.27344 7.34766 1.16797 7.34766 0.675781C7.34766 0.429688 7.52344 0.183594 7.875 0.183594H11.1094C11.5664 0.183594 11.707 0.429688 11.707 0.957031V5.07031C11.707 5.49219 11.918 5.66797 12.0234 5.66797C12.3047 5.66797 12.5156 5.49219 13.0078 5.03516C14.4844 3.34766 15.5391 0.78125 15.5391 0.78125C15.6797 0.464844 15.9258 0.183594 16.4531 0.183594H18.5273C19.1602 0.183594 19.2656 0.535156 19.1602 0.957031Z" fill="url(#paint0_linear_1_16331)"/>
<defs>
<linearGradient id="paint0_linear_1_16331" x1="0" y1="5.55859" x2="21" y2="5.55859" gradientUnits="userSpaceOnUse">
<stop stop-color="#F7941D"/>
<stop offset="1" stop-color="#27AAE1"/>
</linearGradient>
</defs>
</svg>
