<svg width="20" height="12" viewBox="0 0 20 12" fill="none" xmlns="http://www.w3.org/2000/svg">
<path d="M19.1602 1.04199C19.0898 1.39355 18.8086 1.96777 18.3164 2.76465C17.8477 3.56152 17.4141 4.26465 17.0156 4.87402C16.6172 5.45996 16.4062 5.76465 16.3828 5.78809C16.2422 5.99902 16.1719 6.15137 16.1719 6.24512C16.1719 6.33887 16.2422 6.50293 16.3828 6.7373C16.3828 6.7373 16.4531 6.81934 16.5938 6.9834C16.7578 7.14746 16.9453 7.33496 17.1562 7.5459C17.3672 7.75684 17.6016 8.00293 17.8594 8.28418C18.1172 8.56543 18.3516 8.84668 18.5625 9.12793C18.7969 9.38574 18.9961 9.65527 19.1602 9.93652C19.3477 10.2178 19.4766 10.4521 19.5469 10.6396C19.7109 11.2256 19.4766 11.5186 18.8438 11.5186H16.7695C16.6055 11.5186 16.4648 11.4951 16.3477 11.4482C16.2305 11.4014 16.1016 11.3193 15.9609 11.2021C15.8203 11.085 15.6914 10.9561 15.5742 10.8154C15.457 10.6748 15.2812 10.4756 15.0469 10.2178C14.8125 9.95996 14.5781 9.71387 14.3438 9.47949C13.4062 8.58887 12.7148 8.14355 12.2695 8.14355C11.9883 8.14355 11.8242 8.22559 11.7773 8.38965C11.7305 8.55371 11.707 9.02246 11.707 9.7959C11.7305 10.1709 11.7422 10.4756 11.7422 10.71C11.7422 10.9912 11.6484 11.2021 11.4609 11.3428C11.2734 11.46 10.8633 11.5186 10.2305 11.5186C9.12891 11.5186 8.01562 11.1904 6.89062 10.5342C5.76562 9.87793 4.78125 8.94043 3.9375 7.72168C3.14062 6.64355 2.47266 5.57715 1.93359 4.52246C1.41797 3.44434 1.07812 2.62402 0.914062 2.06152C0.75 1.49902 0.667969 1.10059 0.667969 0.866211C0.667969 0.467773 0.902344 0.268555 1.37109 0.268555H3.44531C3.70312 0.268555 3.89062 0.327148 4.00781 0.444336C4.14844 0.561523 4.26562 0.772461 4.35938 1.07715C4.85156 2.50684 5.44922 3.78418 6.15234 4.90918C6.87891 6.03418 7.42969 6.59668 7.80469 6.59668C7.94531 6.59668 8.03906 6.5498 8.08594 6.45605C8.15625 6.33887 8.19141 6.12793 8.19141 5.82324V2.76465C8.16797 2.43652 8.10938 2.15527 8.01562 1.9209C7.92188 1.68652 7.82812 1.52246 7.73438 1.42871C7.64062 1.31152 7.54688 1.19434 7.45312 1.07715C7.38281 0.959961 7.34766 0.854492 7.34766 0.760742C7.34766 0.666992 7.37109 0.584961 7.41797 0.514648C7.46484 0.444336 7.52344 0.385742 7.59375 0.338867C7.6875 0.291992 7.78125 0.268555 7.875 0.268555H11.1445C11.5195 0.268555 11.707 0.526367 11.707 1.04199V5.12012C11.707 5.51855 11.8125 5.71777 12.0234 5.71777C12.2578 5.71777 12.5859 5.50684 13.0078 5.08496C13.4531 4.59277 13.8867 3.99512 14.3086 3.29199C14.7305 2.58887 15.0469 2.00293 15.2578 1.53418L15.5742 0.866211C15.7383 0.467773 16.0312 0.268555 16.4531 0.268555H18.5273C19.0898 0.268555 19.3008 0.526367 19.1602 1.04199Z" fill="white"/>
</svg>
