<svg width="50" height="51" viewBox="0 0 50 51" fill="none" xmlns="http://www.w3.org/2000/svg">
<path d="M28.4229 24.6586C28.5694 24.9516 28.8625 25.1103 29.1677 25.1103C29.2898 25.1103 29.4241 25.0859 29.5461 25.0248C29.595 25.0004 34.5029 22.5098 36.9202 21.7407C37.3598 21.6064 37.6039 21.1302 37.4574 20.6907C37.3231 20.2512 36.8592 20.007 36.4075 20.1413C33.8558 20.9471 28.9845 23.4255 28.777 23.5232C28.3863 23.7551 28.2154 24.2557 28.4229 24.6586Z" fill="#00093C"/>
<path d="M29.1662 15.124C29.2883 15.124 29.4226 15.0995 29.5447 15.0385C29.5935 15.0141 34.5014 12.5235 36.9188 11.7543C37.3583 11.6201 37.6024 11.1439 37.4559 10.7044C37.3216 10.2649 36.8577 10.0207 36.406 10.155C33.8544 10.9608 28.9831 13.4392 28.7755 13.5368C28.3604 13.7444 28.2017 14.2449 28.4092 14.66C28.5802 14.953 28.8732 15.124 29.1662 15.124Z" fill="#00093C"/>
<path d="M49.1769 13.4512C48.713 13.4512 48.3467 13.8296 48.3467 14.2814V46.7811C48.3467 48.1607 47.2235 49.2839 45.8439 49.2839H25.8338V47.3671C27.0546 46.9398 30.2167 45.9509 33.3299 45.9509C40.5942 45.9509 45.5143 47.5625 45.5631 47.5747C45.8195 47.6601 46.0881 47.6113 46.3079 47.4648C46.5276 47.3061 46.6497 47.0619 46.6497 46.7933V10.1182C46.6497 9.72748 46.3811 9.38564 46.0026 9.30017C46.0026 9.30017 45.3434 9.15367 44.2324 8.94612C43.7806 8.86066 43.3411 9.16588 43.2679 9.6176C43.1824 10.0693 43.4876 10.5088 43.9394 10.5943C44.3667 10.6676 44.7207 10.7408 45.0015 10.8019V45.6823C43.1092 45.1817 38.9215 44.2905 33.3299 44.2905C29.7039 44.2905 26.1268 45.487 25.028 45.8899C24.0513 45.4503 21.0845 44.2905 17.4952 44.2905C11.757 44.2905 7.02004 45.2428 4.99339 45.7189V10.7652C6.65378 10.3501 11.5739 9.28796 17.4952 9.28796C20.5351 9.28796 23.1356 10.2402 24.1611 10.6676V43.4603C24.1611 43.7655 24.3199 44.0341 24.5885 44.1806C24.8448 44.3271 25.1745 44.3271 25.4309 44.1684C25.5163 44.1196 33.7694 39.1872 41.0947 36.7455C41.4366 36.6356 41.6685 36.3182 41.6685 35.9519V1.77957C41.6685 1.51098 41.5342 1.2546 41.3145 1.09588C41.0947 0.937169 40.8017 0.900542 40.5453 0.998213C33.8793 3.50101 27.1279 7.70083 27.0668 7.73745C26.6762 7.98163 26.5541 8.4944 26.7982 8.88508C27.0424 9.27576 27.5552 9.39784 27.9459 9.15367C28.0069 9.11704 33.8793 5.46662 40.0081 3.00045V35.3537C34.3188 37.3315 28.3732 40.5546 25.8338 42.0075V10.1182C25.8338 9.80073 25.6506 9.51993 25.3698 9.37343C25.2233 9.30018 21.8049 7.61536 17.4952 7.61536C9.96235 7.61536 4.1754 9.23913 3.93122 9.31238C3.57717 9.41005 3.33299 9.73969 3.33299 10.1182V46.7933C3.33299 47.0497 3.45508 47.3061 3.66263 47.4526C3.80914 47.5625 3.98006 47.6235 4.16319 47.6235C4.23644 47.6235 4.3219 47.6113 4.39516 47.5869C4.4562 47.5747 10.2187 45.9509 17.5074 45.9509C20.5596 45.9509 23.16 46.9032 24.1734 47.3305V49.2839H4.16319C2.7836 49.2839 1.66039 48.1607 1.66039 46.7811V14.2814C1.66039 13.8174 1.28192 13.4512 0.830197 13.4512C0.366263 13.4512 0 13.8296 0 14.2814V46.7811C0 49.0763 1.86794 50.9443 4.16319 50.9443H45.8317C48.127 50.9443 49.9949 49.0763 49.9949 46.7811V14.2814C50.0071 13.8296 49.6286 13.4512 49.1769 13.4512Z" fill="#00093C"/>
<path d="M28.4229 19.6654C28.5694 19.9584 28.8625 20.1171 29.1677 20.1171C29.2898 20.1171 29.4241 20.0927 29.5461 20.0317C29.595 20.0073 34.5029 17.5167 36.9202 16.7475C37.3598 16.6132 37.6039 16.1371 37.4574 15.6976C37.3231 15.258 36.8592 15.0139 36.4075 15.1482C33.8558 15.9539 28.9845 18.4323 28.777 18.53C28.3863 18.7498 28.2154 19.2503 28.4229 19.6654Z" fill="#00093C"/>
<path d="M28.4229 29.6644C28.5694 29.9574 28.8625 30.1162 29.1677 30.1162C29.2898 30.1162 29.4241 30.0917 29.5461 30.0307C29.595 30.0063 34.5029 27.5157 36.9202 26.7465C37.3598 26.6122 37.6039 26.1361 37.4574 25.6966C37.3231 25.2571 36.8592 25.0129 36.4075 25.1472C33.8558 25.953 28.9845 28.4313 28.777 28.529C28.3863 28.7488 28.2154 29.2493 28.4229 29.6644Z" fill="#00093C"/>
<path d="M20.1938 16.418C15.0417 15.2093 9.19369 16.7476 8.94952 16.8087C8.51 16.9307 8.24141 17.3825 8.3635 17.8342C8.46117 18.2005 8.80301 18.4568 9.16928 18.4568C9.24253 18.4568 9.31578 18.4446 9.38903 18.4324C9.45008 18.4202 15.0783 16.9307 19.8153 18.054C20.267 18.1638 20.7066 17.883 20.8164 17.4313C20.9263 16.9674 20.6455 16.5156 20.1938 16.418Z" fill="#00093C"/>
<path d="M20.1938 21.4109C15.0417 20.2022 9.19369 21.7405 8.94952 21.8138C8.51 21.9359 8.24141 22.3876 8.3635 22.8393C8.46117 23.2056 8.80301 23.4619 9.16928 23.4619C9.24253 23.4619 9.31578 23.4497 9.38903 23.4375C9.45008 23.4253 15.0783 21.9359 19.8153 23.0591C20.267 23.1689 20.7066 22.8881 20.8164 22.4364C20.9263 21.9725 20.6455 21.5208 20.1938 21.4109Z" fill="#00093C"/>
<path d="M28.4229 34.6703C28.5694 34.9633 28.8625 35.122 29.1677 35.122C29.2898 35.122 29.4241 35.0976 29.5461 35.0366C29.595 35.0121 34.5029 32.5215 36.9202 31.7524C37.3598 31.6181 37.6039 31.142 37.4574 30.7024C37.3231 30.2629 36.8592 30.0187 36.4075 30.153C33.8558 30.9588 28.9845 33.4372 28.777 33.5349C28.3863 33.7546 28.2154 34.2552 28.4229 34.6703Z" fill="#00093C"/>
<path d="M20.1938 26.4167C15.0417 25.2081 9.19369 26.7464 8.94952 26.8196C8.51 26.9417 8.24141 27.3934 8.3635 27.8452C8.46117 28.2236 8.80301 28.4678 9.16928 28.4678C9.24253 28.4678 9.31578 28.4556 9.38903 28.4434C9.45008 28.4312 15.0783 26.9417 19.8153 28.0649C20.267 28.1748 20.7066 27.894 20.8164 27.4423C20.9263 26.9661 20.6455 26.5266 20.1938 26.4167Z" fill="#00093C"/>
<path d="M20.1938 36.416C15.0417 35.2074 9.19369 36.7457 8.94952 36.8067C8.51 36.9288 8.24141 37.3805 8.3635 37.8322C8.46117 38.2107 8.80301 38.4549 9.16928 38.4549C9.24253 38.4549 9.31578 38.4427 9.38903 38.4305C9.45008 38.4183 15.0783 36.9288 19.8153 38.052C20.267 38.1497 20.7066 37.8811 20.8164 37.4294C20.9263 36.9776 20.6455 36.5259 20.1938 36.416Z" fill="#00093C"/>
<path d="M20.1938 31.4226C15.0417 30.2139 9.19369 31.7522 8.94952 31.8255C8.51 31.9476 8.24141 32.3993 8.3635 32.851C8.46117 33.2295 8.80301 33.4737 9.16928 33.4737C9.24253 33.4737 9.31578 33.4615 9.38903 33.4492C9.45008 33.437 15.0783 31.9476 19.8153 33.0708C20.267 33.1807 20.7066 32.8999 20.8164 32.4481C20.9263 31.972 20.6455 31.5203 20.1938 31.4226Z" fill="#00093C"/>
</svg>
