<svg width="40" height="56" viewBox="0 0 40 56" fill="none" xmlns="http://www.w3.org/2000/svg">
<path d="M3.34283 55.9445H25.6853C26.1345 55.9445 26.4984 55.5806 26.4984 55.1314C26.4984 54.6823 26.1345 54.3183 25.6853 54.3183H9.06083V46.8683C9.06083 46.4191 8.69677 46.0552 8.24772 46.0552C7.79867 46.0552 7.43461 46.4191 7.43461 46.8683V54.3184H3.34261C2.06777 54.3184 1.4691 53.7716 1.65362 52.3987C3.87861 41.5265 3.88338 40.6493 4.24722 39.7584C4.31064 39.6696 4.66126 38.4149 6.38028 37.6853C6.55797 37.6124 6.44717 37.6612 7.05841 37.4749C7.09614 37.4641 6.90977 37.5274 9.82992 36.5135L11.7776 40.109C11.9915 40.5038 12.4848 40.6507 12.8798 40.4366C13.2747 40.2227 13.4214 39.7292 13.2075 39.3343L11.3865 35.9727L12.6318 35.5402C13.2321 36.6484 18.5471 46.4596 19.1248 47.5259C19.4814 48.1864 20.3893 48.2193 20.8075 47.6426C20.8833 47.5382 20.4504 48.3153 27.3625 35.5365L28.6075 35.9689L22.0251 48.1449C21.1574 49.7499 18.8504 49.7501 17.9816 48.1466L15.0151 42.6704C14.801 42.2755 14.3078 42.1285 13.9128 42.3427C13.518 42.5567 13.3713 43.0501 13.5852 43.445L16.5518 48.9213C18.0357 51.66 21.9748 51.6575 23.4557 48.9183L30.1638 36.5096C33.0775 37.5212 32.9066 37.4634 32.9443 37.4743C33.5175 37.6489 33.4538 37.6153 33.6226 37.6844C34.2443 37.9492 34.6154 38.2549 34.6046 38.2468C35.2422 38.761 35.6818 39.3552 35.9167 40.23C35.9552 40.3687 38.3691 52.3368 38.3789 52.7407C38.4031 53.7615 37.9623 54.3184 36.6626 54.3184H32.5704V46.8683C32.5704 46.4191 32.2065 46.0552 31.7573 46.0552C31.3081 46.0552 30.9442 46.4191 30.9442 46.8683V54.3184H29.4796C29.0305 54.3184 28.6665 54.6824 28.6665 55.1315C28.6665 55.5807 29.0305 55.9446 29.4796 55.9446H36.6624C38.5887 55.9446 39.7987 54.9661 39.9822 53.2607C40.0265 52.8538 40.0005 52.3542 39.9509 52.1048C37.4779 39.6869 37.5848 40.2156 37.5727 40.1646C37.2484 38.595 36.3366 37.2917 34.8585 36.4752C34.1671 36.0924 33.7685 36.0328 33.4199 35.919L27.3443 33.8087L25.3194 32.4199V30.8446C28.2804 29.0856 30.1656 26.0562 30.5102 22.7779C32.9846 22.8926 34.7091 20.5277 33.6717 18.4572V11.8288C33.6717 7.03539 31.0647 5.36776 30.2682 4.97031C26.3709 0.318025 19.0937 -0.875184 13.5769 1.95563L13.5663 1.96094C13.4717 2.01656 12.3346 2.54258 10.9347 3.71324C10.595 4.00705 10.5578 4.5205 10.8515 4.86016C11.1457 5.20025 11.6593 5.23658 11.9984 4.94331C17.4014 0.406601 25.4208 1.57238 29.1281 6.14368C29.2194 6.2561 29.3305 6.33904 29.4662 6.38978C29.5716 6.43206 32.0456 7.47327 32.0456 11.8289V16.9606C31.5945 16.7696 31.0999 16.6717 30.5728 16.6864V14.0269C30.5728 13.3523 30.0645 12.7947 29.3906 12.7296C28.0243 12.5977 27.2585 11.7074 26.8567 10.984C26.3539 10.0784 25.1536 9.86143 24.3665 10.534C20.741 13.6331 16.5666 13.7905 13.7031 13.3775C11.5402 13.0653 9.52842 14.5385 9.17835 16.6875C8.65189 16.6648 8.13171 16.758 7.6535 16.9605C7.65664 14.1611 7.33368 11.1154 9.62317 7.62516C9.86884 7.24918 9.76314 6.74538 9.38715 6.49971C9.01128 6.25394 8.50737 6.35942 8.2617 6.73562C5.14587 11.51 6.2607 15.788 6.02717 18.4573C4.9903 20.527 6.71257 22.8928 9.18854 22.7779C9.59271 26.6389 11.9711 28.86 12.0276 28.9567L12.0277 28.9568C12.4499 29.3615 13.208 30.2069 14.6858 31.0214V32.4198L12.6612 33.8085C4.73726 36.561 5.54147 36.227 4.89771 36.6203C3.68097 37.3698 2.83762 38.516 2.48614 39.9274C2.41686 40.2063 2.53189 39.6792 0.0542908 52.1047C0.00442008 52.3557 -0.0218162 52.845 0.022959 53.2599C0.206396 54.966 1.41652 55.9445 3.34283 55.9445ZM21.408 32.2323C21.8653 32.1659 22.3575 32.0569 22.6455 31.9756C22.7139 31.9534 23.1065 31.8595 23.6931 31.6338V32.535L20.0025 36.6417L16.3118 32.5349V31.7463C18.009 32.3358 19.7691 32.4713 21.408 32.2323ZM23.4394 39.3735C23.2281 39.2183 21.4617 37.9209 21.2072 37.7339L24.6323 33.9225L25.91 34.8036C25.0895 36.3212 23.9719 38.3884 23.4394 39.3735ZM22.1435 41.7706L21.9425 41.1525L22.2508 40.5178L22.6587 40.8175L22.1435 41.7706ZM17.3419 40.8209L17.7543 40.5181L18.0625 41.1528L17.8596 41.7767L17.3419 40.8209ZM18.7979 37.7339C18.6001 37.8791 16.7599 39.2307 16.5656 39.3735L14.0952 34.8036L15.3728 33.9225L18.7979 37.7339ZM19.0867 39.5394L20.0025 38.8668L20.9182 39.5394L20.5589 40.2792H19.4461L19.0867 39.5394ZM20.0022 45.7317L18.9283 43.7492L19.5278 41.9054H20.4775L21.076 43.7459C20.7354 44.3751 20.4194 44.9596 20.0022 45.7317ZM32.3493 19.733C32.3493 20.5792 31.501 21.2021 30.5724 21.153V18.313C31.51 18.2634 32.3493 18.8951 32.3493 19.733ZM29.2341 14.3481C29.2336 14.3481 29.2331 14.3481 29.2327 14.3479C29.2331 14.3481 29.2335 14.3481 29.2341 14.3481ZM13.4705 14.9868C16.6666 15.4481 21.3347 15.2646 25.4226 11.77L25.4347 11.7731C26.22 13.1874 27.4592 14.0802 28.9462 14.3117V17.1911L28.0184 17.7387C27.6364 17.1882 27.0006 16.8263 26.2814 16.8263H22.5605C21.6829 16.8263 20.929 17.3641 20.6097 18.1273H19.0888C18.7696 17.3641 18.0155 16.8263 17.1379 16.8263H13.417C12.6977 16.8263 12.062 17.1882 11.68 17.7387L10.7564 17.1935C10.8364 15.8035 12.0929 14.7877 13.4705 14.9868ZM22.0727 18.9404C22.0727 18.676 22.2962 18.4525 22.5606 18.4525H26.2815C26.5459 18.4525 26.7694 18.676 26.7694 18.9404V20.5597C26.7694 21.265 26.1955 21.8388 25.4902 21.8388H23.3517C22.6465 21.8388 22.0726 21.265 22.0726 20.5597V18.9404H22.0727ZM17.6257 18.9404V20.5597C17.6257 21.265 17.052 21.8388 16.3466 21.8388H14.2081C13.5028 21.8388 12.9291 21.265 12.9291 20.5597V18.9404C12.9291 18.676 13.1525 18.4525 13.4169 18.4525H17.1378C17.4022 18.4525 17.6257 18.676 17.6257 18.9404ZM7.34907 19.733C7.34907 18.8868 8.19741 18.2639 9.12598 18.313V21.153C8.18852 21.2026 7.34907 20.5708 7.34907 19.733ZM12.945 27.5451C10.3134 24.4779 10.8207 21.4996 10.7522 19.0796L11.3031 19.4047V20.5598C11.3031 22.1617 12.6063 23.4651 14.2082 23.4651H16.3467C17.9486 23.4651 19.2519 22.1618 19.2519 20.5598V19.7535H20.4467V20.5598C20.4467 22.1617 21.75 23.4651 23.3519 23.4651H25.4904C27.0923 23.4651 28.3957 22.1618 28.3957 20.5598V19.4047L28.9465 19.0796V21.622C28.9465 26.4582 25.1189 30.6601 19.8495 30.7181C19.8385 30.718 19.729 30.7172 19.7399 30.7173C18.3343 30.7031 17.2541 30.3429 17.3634 30.3736C15.7679 29.9309 14.2463 29.0173 12.945 27.5451Z" fill="#00093C"/>
</svg>
