<svg width="57" height="47" viewBox="0 0 57 47" fill="none" xmlns="http://www.w3.org/2000/svg">
<path d="M53.618 3.29436H51.2623V1.05721C51.2623 0.597927 50.8919 0.227539 50.4326 0.227539H45.4101C44.9509 0.227539 44.5805 0.597927 44.5805 1.05721V3.29436H17.0383V1.05721C17.0383 0.597927 16.6679 0.227539 16.2086 0.227539H11.1862C10.7269 0.227539 10.3565 0.597927 10.3565 1.05721V3.29436H8.41564C6.38591 3.29436 4.72656 4.95371 4.72656 6.98344V27.266C4.72656 27.7253 5.09695 28.0956 5.55624 28.0956C6.01552 28.0956 6.38591 27.7253 6.38591 27.266V6.98344C6.38591 5.87227 7.28966 4.95371 8.41564 4.95371H53.6328C54.5217 4.95371 55.2477 5.67967 55.2477 6.56861V34.1256C55.2477 35.0145 54.5217 35.7405 53.6328 35.7405H51.8549V32.5848C51.8549 32.1255 51.4845 31.7551 51.0253 31.7551H42.0766C41.6174 31.7551 41.247 32.1255 41.247 32.5848V35.7405H27.8537L31.0094 34.8812C32.6391 34.4367 34.0762 33.5033 35.1429 32.1996L40.5062 25.6807C40.6099 25.5474 40.684 25.3844 40.6988 25.2214L41.1729 18.9989C41.2173 18.3914 40.8469 17.784 40.284 17.547C40.5358 17.3988 40.7136 17.1321 40.7136 16.821C40.7136 16.3617 40.3432 15.9913 39.8839 15.9913H36.2393C35.78 15.9913 35.4096 16.3617 35.4096 16.821C35.4096 17.2803 35.78 17.6507 36.2393 17.6507H38.9654C38.8765 17.7099 38.7876 17.784 38.7135 17.8581L35.6615 20.9101C35.0689 21.5027 34.58 22.2435 34.0614 22.8954C33.7799 23.2509 33.8244 23.7843 34.1947 24.0658C34.5503 24.3473 35.0837 24.3029 35.3652 23.9325L36.3282 22.7472L38.7876 25.2066L33.9133 31.1477C33.054 32.1847 31.928 32.9255 30.6242 33.2811L17.468 37.0739C16.4457 37.3998 16.9642 38.9851 17.9717 38.6592L20.8607 37.7258V44.7039H19.7051C19.2458 44.7039 18.8754 45.0743 18.8754 45.5336C18.8754 45.9929 19.2458 46.3633 19.7051 46.3633H24.8017C25.261 46.3633 25.6313 45.9929 25.6313 45.5336C25.6313 45.0743 25.261 44.7039 24.8017 44.7039H22.5349V37.4146H53.6624C55.4699 37.4146 56.9367 35.9479 56.9367 34.1404V6.58342C56.8922 4.76111 55.4255 3.29436 53.618 3.29436ZM46.225 1.88688H49.5881V3.27955H46.225V1.88688ZM12.001 1.88688H15.3642V3.27955H12.001V1.88688ZM39.4691 19.4137L39.1728 23.2658L37.3949 21.4879L39.4691 19.4137ZM42.8767 35.7405V33.4144H50.1659V35.7405H42.8767Z" fill="#00093C"/>
<path d="M15.6749 44.7042H4.97804V40.2743C4.97804 37.4594 5.62992 34.6592 6.85961 32.1406C7.54113 30.7627 8.96342 29.8738 10.5042 29.8738H24.5494C27.4829 29.8738 30.3423 28.8367 32.5943 26.9551C32.9498 26.6588 32.9943 26.1403 32.698 25.7847C32.4017 25.4291 31.8831 25.3847 31.5275 25.681C29.5719 27.3107 27.0977 28.2144 24.5642 28.2144H18.5195C19.4529 27.2366 20.0307 25.918 20.0307 24.4661V21.3993C22.1789 21.2511 23.8679 19.4733 23.8679 17.2954C23.8679 15.0286 22.0159 13.1766 19.7492 13.1766C18.3565 13.147 17.0379 13.4729 16.0749 14.5248C15.6008 15.0434 14.9193 15.3397 14.223 15.3397H11.9265C10.0153 15.3397 8.4597 16.8953 8.4597 18.8066V25.0587C8.4597 25.7699 8.62267 26.4662 9.05232 27.044C9.24492 27.3107 9.48197 27.5329 9.74865 27.7107C10.045 27.9033 10.4598 27.9774 10.6968 28.2144C8.4597 28.17 6.34107 29.3997 5.36324 31.4146C4.01502 34.1703 3.30387 37.2223 3.30387 40.2891V44.719H0.829673C0.37039 44.719 0 45.0894 0 45.5487C0 46.008 0.37039 46.3783 0.829673 46.3783H15.6749C16.1342 46.3783 16.5046 46.008 16.5046 45.5487C16.5194 45.0746 16.1342 44.7042 15.6749 44.7042ZM14.3711 28.1848C13.9118 28.1552 13.4525 28.0367 13.0377 27.8441C13.2303 27.7403 13.4229 27.6218 13.5859 27.4885C14.2822 26.9107 14.6674 26.0662 14.6674 25.1032V21.3993H18.3565V24.4513C18.3565 26.5107 16.6823 28.1996 14.6082 28.1996C14.5193 28.1996 14.4452 28.1996 14.3711 28.1848ZM10.1339 25.0439V18.7917C10.1339 17.7991 10.9487 16.9842 11.9414 16.9842H14.223C15.3934 16.9842 16.5046 16.4953 17.3046 15.636C17.9565 14.9249 18.8454 14.7915 19.764 14.8212C21.1122 14.8212 22.2086 15.9175 22.2086 17.2657C22.2086 18.6139 21.1122 19.7103 19.764 19.7103H13.8377C13.3785 19.7103 13.0081 20.0807 13.0081 20.54V25.0884C13.0081 26.0662 12.1488 26.6736 11.2154 26.4958C10.4746 26.3773 10.1339 25.7699 10.1339 25.0439Z" fill="#00093C"/>
<path d="M28.5352 12.9537H33.0687C33.528 12.9537 33.8984 12.5833 33.8984 12.124V9.05721C33.8984 8.59793 33.528 8.22754 33.0687 8.22754H28.5352C28.0759 8.22754 27.7055 8.59793 27.7055 9.05721V12.124C27.6907 12.5833 28.0611 12.9537 28.5352 12.9537ZM29.3649 9.88688H32.2391V11.2795H29.3649V9.88688Z" fill="#00093C"/>
<path d="M27.6895 18.332C27.6895 18.7913 28.0598 19.1617 28.5191 19.1617H33.0527C33.512 19.1617 33.8824 18.7913 33.8824 18.332V15.2652C33.8824 14.8059 33.512 14.4355 33.0527 14.4355H28.5191C28.0598 14.4355 27.6895 14.8059 27.6895 15.2652V18.332ZM29.3636 16.1097H32.2378V17.5024H29.3636V16.1097Z" fill="#00093C"/>
<path d="M36.2086 11.4133H50.9945C51.4538 11.4133 51.8242 11.0429 51.8242 10.5836C51.8242 10.1243 51.4538 9.75391 50.9945 9.75391H36.2086C35.7493 9.75391 35.3789 10.1243 35.3789 10.5836C35.3789 11.0429 35.7493 11.4133 36.2086 11.4133Z" fill="#00093C"/>
</svg>
