<svg width="20" height="14" viewBox="0 0 20 14" fill="none" xmlns="http://www.w3.org/2000/svg">
<path d="M19.3008 2.20312C19.7227 3.67969 19.7227 6.84375 19.7227 6.84375C19.7227 6.84375 19.7227 9.97266 19.3008 11.4844C19.0898 12.3281 18.4219 12.9609 17.6133 13.1719C16.1016 13.5586 10.125 13.5586 10.125 13.5586C10.125 13.5586 4.11328 13.5586 2.60156 13.1719C1.79297 12.9609 1.125 12.3281 0.914062 11.4844C0.492188 9.97266 0.492188 6.84375 0.492188 6.84375C0.492188 6.84375 0.492188 3.67969 0.914062 2.20312C1.125 1.35938 1.79297 0.691406 2.60156 0.480469C4.11328 0.0585938 10.125 0.0585938 10.125 0.0585938C10.125 0.0585938 16.1016 0.0585938 17.6133 0.480469C18.4219 0.691406 19.0898 1.35938 19.3008 2.20312ZM8.15625 9.69141L13.1484 6.84375L8.15625 3.99609V9.69141Z" fill="url(#paint0_linear_1_16333)"/>
<defs>
<linearGradient id="paint0_linear_1_16333" x1="0" y1="6.55859" x2="21" y2="6.55859" gradientUnits="userSpaceOnUse">
<stop stop-color="#F7941D"/>
<stop offset="1" stop-color="#27AAE1"/>
</linearGradient>
</defs>
</svg>
