<svg width="20" height="14" viewBox="0 0 20 14" fill="none" xmlns="http://www.w3.org/2000/svg">
<path d="M19.3359 2.25293C19.4062 2.53418 19.4648 2.88574 19.5117 3.30762C19.582 3.72949 19.6289 4.15137 19.6523 4.57324C19.6758 4.97168 19.6875 5.34668 19.6875 5.69824C19.7109 6.0498 19.7227 6.34277 19.7227 6.57715V6.89355C19.7227 9.00293 19.5938 10.5615 19.3359 11.5693C19.2188 11.9678 19.0078 12.3193 18.7031 12.624C18.3984 12.9287 18.0352 13.1396 17.6133 13.2568C17.168 13.374 16.3242 13.4678 15.082 13.5381C13.8398 13.585 12.7031 13.6201 11.6719 13.6436H10.125C6.11719 13.6436 3.62109 13.5146 2.63672 13.2568C1.72266 12.999 1.14844 12.4365 0.914062 11.5693C0.796875 11.124 0.703125 10.5146 0.632812 9.74121C0.585938 8.94434 0.550781 8.27637 0.527344 7.7373V6.89355C0.527344 4.80762 0.65625 3.26074 0.914062 2.25293C1.03125 1.83105 1.24219 1.46777 1.54688 1.16309C1.85156 0.858398 2.21484 0.647461 2.63672 0.530273C3.08203 0.413086 3.92578 0.331055 5.16797 0.28418C6.41016 0.213867 7.54688 0.166992 8.57812 0.143555H10.125C14.1328 0.143555 16.6289 0.272461 17.6133 0.530273C18.0352 0.647461 18.3984 0.858398 18.7031 1.16309C19.0078 1.46777 19.2188 1.83105 19.3359 2.25293ZM8.15625 9.77637L13.1836 6.89355L8.15625 4.0459V9.77637Z" fill="white"/>
</svg>
